<svg xmlns="http://www.w3.org/2000/svg" viewBox="0 0 300 300">
  <defs>
    <g id="triangle">
      <polygon points="0,0 50,0 25,43" opacity="0.35" />
    </g>
  </defs>
  <g fill="none" stroke-width="0.5">
    <use href="#triangle" x="0" y="0" fill="#FF6B00" transform="rotate(0 25 21.5)" />
    <use href="#triangle" x="50" y="0" fill="#00C2A8" transform="rotate(60 75 21.5)" />
    <use href="#triangle" x="100" y="0" fill="#A5FF00" transform="rotate(120 125 21.5)" />
    <use href="#triangle" x="150" y="0" fill="#00AEEF" transform="rotate(180 175 21.5)" />
    <use href="#triangle" x="200" y="0" fill="#044E42" transform="rotate(240 225 21.5)" />
    <use href="#triangle" x="0" y="50" fill="#FF9F00" transform="rotate(300 25 71.5)" />
    <use href="#triangle" x="50" y="50" fill="#007B6E" transform="rotate(30 75 71.5)" />
    <use href="#triangle" x="100" y="50" fill="#68B300" transform="rotate(90 125 71.5)" />
    <use href="#triangle" x="150" y="50" fill="#0077B6" transform="rotate(150 175 71.5)" />
    <use href="#triangle" x="200" y="50" fill="#066B55" transform="rotate(210 225 71.5)" />
    <use href="#triangle" x="0" y="100" fill="#D72638" transform="rotate(270 25 121.5)" />
    <use href="#triangle" x="50" y="100" fill="#FF3C38" transform="rotate(330 75 121.5)" />
  </g>
</svg>
