<svg xmlns="http://www.w3.org/2000/svg" xmlns:xlink="http://www.w3.org/1999/xlink" version="1.1" width="220" height="50" viewBox="3.89 -46.11 1150 250" xml:space="preserve">
<desc>Created with Fabric.js 5.2.4</desc>
<defs>
</defs>
<g transform="matrix(0 0 0 0 0 0)" id="5573b25e-103c-4ad6-acc3-d98f91705e63"  >
</g>
<g transform="matrix(1 0 0 1 575 125)" id="4e49e6d3-a12b-40c0-be5b-89a0c45745fc"  >
<rect style="stroke: none; stroke-width: 1; stroke-dasharray: none; stroke-linecap: butt; stroke-dashoffset: 0; stroke-linejoin: miter; stroke-miterlimit: 4; fill: rgb(255,255,255); fill-rule: nonzero; opacity: 1; visibility: hidden;" vector-effect="non-scaling-stroke"  x="-575" y="-125" rx="0" ry="0" width="1150" height="250" />
</g>
<g transform="matrix(0.99 0 0 0.99 574.9 79.65)"  >
<g style="" vector-effect="non-scaling-stroke"   >
		<g transform="matrix(1 0 0 1 -511.66 88.36)"  >
<path style="stroke: none; stroke-width: 1; stroke-dasharray: none; stroke-linecap: butt; stroke-dashoffset: 0; stroke-linejoin: miter; stroke-miterlimit: 4; fill: rgb(59,97,85); fill-rule: evenodd; opacity: 1;" vector-effect="non-scaling-stroke"  transform=" translate(-88.34, -232.3)" d="M 89.36 252.22 C 86.74 252.22 84.27 251.75 81.96 250.8 C 79.64999999999999 249.83 77.63 248.46 75.91999999999999 246.71 C 74.19999999999999 244.97 72.83999999999999 242.88 71.82999999999998 240.46 C 70.80999999999999 238.02 70.30999999999999 235.32000000000002 70.30999999999999 232.38 L 70.30999999999999 232.22 C 70.30999999999999 229.46 70.75999999999999 226.87 71.66999999999999 224.45 C 72.57999999999998 222.03 73.82999999999998 219.94 75.44999999999999 218.14999999999998 C 77.08999999999999 216.35999999999999 79.02999999999999 214.98 81.27999999999999 213.95 C 83.50999999999999 212.89999999999998 85.95999999999998 212.38 88.62999999999998 212.38 C 91.41999999999999 212.38 93.92999999999998 212.9 96.13999999999999 213.95 C 98.33999999999999 215 100.18999999999998 216.44 101.69999999999999 218.25 C 103.24 220.08 104.38999999999999 222.21 105.15999999999998 224.66 C 105.95999999999998 227.07 106.36999999999998 229.69 106.36999999999998 232.48 C 106.36999999999998 232.89999999999998 106.36999999999998 233.23999999999998 106.36999999999998 233.48 C 106.36999999999998 233.73 106.33999999999997 234.03 106.31999999999998 234.36999999999998 L 76.08 234.36999999999998 C 76.25 236.43999999999997 76.72 238.27999999999997 77.5 239.87999999999997 C 78.3 241.44999999999996 79.3 242.80999999999997 80.49 243.91999999999996 C 81.71 245.00999999999996 83.07 245.84999999999997 84.58 246.43999999999997 C 86.12 247.00999999999996 87.74 247.27999999999997 89.46 247.27999999999997 C 92.11 247.27999999999997 94.38999999999999 246.79999999999998 96.28 245.80999999999997 C 98.2 244.79999999999998 99.95 243.48999999999998 101.53 241.86999999999998 L 105.05 245.01999999999998 C 103.11999999999999 247.2 100.92999999999999 248.93999999999997 98.49 250.26999999999998 C 96.04 251.56 92.99 252.22 89.36 252.22 z M 100.64 230.12 C 100.5 228.41 100.13 226.76 99.54 225.19 C 98.98 223.62 98.19000000000001 222.25 97.18 221.1 C 96.2 219.92 94.98 218.97 93.51 218.26999999999998 C 92.07000000000001 217.54 90.39 217.17 88.47 217.17 C 86.78999999999999 217.17 85.23 217.51 83.8 218.17 C 82.36 218.83999999999997 81.1 219.73999999999998 80.02 220.89999999999998 C 78.97 222.04999999999998 78.08999999999999 223.42 77.39999999999999 224.98999999999998 C 76.69 226.55999999999997 76.25999999999999 228.27999999999997 76.08999999999999 230.12999999999997 L 100.64 230.12999999999997 z M 100.64 230.12" stroke-linecap="round" />
</g>
		<g transform="matrix(1 0 0 1 -466.21 88.47)"  >
<path style="stroke: none; stroke-width: 1; stroke-dasharray: none; stroke-linecap: butt; stroke-dashoffset: 0; stroke-linejoin: miter; stroke-miterlimit: 4; fill: rgb(59,97,85); fill-rule: evenodd; opacity: 1;" vector-effect="non-scaling-stroke"  transform=" translate(-133.79, -232.4)" d="M 114.71 213.17 L 121.00999999999999 213.17 L 133.82 244.82 L 146.73 213.17 L 152.86999999999998 213.17 L 136.28999999999996 251.64 L 131.24999999999997 251.64 L 114.71 213.17 z M 114.71 213.17" stroke-linecap="round" />
</g>
		<g transform="matrix(1 0 0 1 -420.4 88.36)"  >
<path style="stroke: none; stroke-width: 1; stroke-dasharray: none; stroke-linecap: butt; stroke-dashoffset: 0; stroke-linejoin: miter; stroke-miterlimit: 4; fill: rgb(59,97,85); fill-rule: evenodd; opacity: 1;" vector-effect="non-scaling-stroke"  transform=" translate(-179.6, -232.3)" d="M 180.62 252.22 C 178 252.22 175.53 251.75 173.22 250.8 C 170.91 249.83 168.89 248.46 167.18 246.71 C 165.46 244.97 164.1 242.88 163.09 240.46 C 162.07 238.02 161.57 235.32000000000002 161.57 232.38 L 161.57 232.22 C 161.57 229.46 162.01999999999998 226.87 162.93 224.45 C 163.84 222.03 165.09 219.94 166.71 218.14999999999998 C 168.35 216.35999999999999 170.29000000000002 214.98 172.54000000000002 213.95 C 174.77 212.89999999999998 177.22000000000003 212.38 179.89000000000001 212.38 C 182.68 212.38 185.19000000000003 212.9 187.4 213.95 C 189.6 215 191.45000000000002 216.44 192.96 218.25 C 194.5 220.08 195.65 222.21 196.42000000000002 224.66 C 197.22000000000003 227.07 197.63000000000002 229.69 197.63000000000002 232.48 C 197.63000000000002 232.89999999999998 197.63000000000002 233.23999999999998 197.63000000000002 233.48 C 197.63000000000002 233.73 197.60000000000002 234.03 197.58 234.36999999999998 L 167.35000000000002 234.36999999999998 C 167.52 236.43999999999997 167.99 238.27999999999997 168.77 239.87999999999997 C 169.57000000000002 241.44999999999996 170.57000000000002 242.80999999999997 171.76000000000002 243.91999999999996 C 172.98000000000002 245.00999999999996 174.34000000000003 245.84999999999997 175.85000000000002 246.43999999999997 C 177.39000000000001 247.00999999999996 179.01000000000002 247.27999999999997 180.73000000000002 247.27999999999997 C 183.38000000000002 247.27999999999997 185.66000000000003 246.79999999999998 187.55 245.80999999999997 C 189.47 244.79999999999998 191.22 243.48999999999998 192.8 241.86999999999998 L 196.32000000000002 245.01999999999998 C 194.39000000000001 247.2 192.20000000000002 248.93999999999997 189.76000000000002 250.26999999999998 C 187.3 251.56 184.26 252.22 180.62 252.22 z M 191.91 230.12 C 191.77 228.41 191.4 226.76 190.81 225.19 C 190.25 223.62 189.46 222.25 188.45 221.1 C 187.47 219.92 186.25 218.97 184.78 218.26999999999998 C 183.34 217.54 181.66 217.17 179.74 217.17 C 178.06 217.17 176.5 217.51 175.07000000000002 218.17 C 173.63000000000002 218.83999999999997 172.37000000000003 219.73999999999998 171.29000000000002 220.89999999999998 C 170.24 222.04999999999998 169.36 223.42 168.67000000000002 224.98999999999998 C 167.96 226.55999999999997 167.53000000000003 228.27999999999997 167.36 230.12999999999997 L 191.91 230.12999999999997 z M 191.91 230.12" stroke-linecap="round" />
</g>
		<g transform="matrix(1 0 0 1 -379.62 87.97)"  >
<path style="stroke: none; stroke-width: 1; stroke-dasharray: none; stroke-linecap: butt; stroke-dashoffset: 0; stroke-linejoin: miter; stroke-miterlimit: 4; fill: rgb(59,97,85); fill-rule: evenodd; opacity: 1;" vector-effect="non-scaling-stroke"  transform=" translate(-220.38, -231.9)" d="M 209.75 213.17 L 215.42 213.17 L 215.42 223.14 C 216.11999999999998 221.57 216.97 220.11999999999998 217.98999999999998 218.77999999999997 C 219.04 217.44999999999996 220.21999999999997 216.30999999999997 221.55999999999997 215.36999999999998 C 222.89 214.39999999999998 224.33999999999997 213.65999999999997 225.92 213.17 C 227.48999999999998 212.69 229.19 212.45999999999998 231.01 212.48999999999998 L 231.01 218.62999999999997 L 230.54 218.62999999999997 C 228.47 218.62999999999997 226.51 218.99999999999997 224.66 219.72999999999996 C 222.84 220.45999999999995 221.22 221.58999999999997 219.82999999999998 223.08999999999997 C 218.46999999999997 224.55999999999997 217.38 226.39999999999998 216.57999999999998 228.59999999999997 C 215.80999999999997 230.77999999999997 215.42999999999998 233.26999999999995 215.42999999999998 236.09999999999997 L 215.42999999999998 251.31999999999996 L 209.76 251.31999999999996 L 209.76 213.17 z M 209.75 213.17" stroke-linecap="round" />
</g>
		<g transform="matrix(1 0 0 1 -342.86 94.32)"  >
<path style="stroke: none; stroke-width: 1; stroke-dasharray: none; stroke-linecap: butt; stroke-dashoffset: 0; stroke-linejoin: miter; stroke-miterlimit: 4; fill: rgb(59,97,85); fill-rule: evenodd; opacity: 1;" vector-effect="non-scaling-stroke"  transform=" translate(-257.14, -238.25)" d="M 270.32 213.17 L 276.36 213.17 L 260.35 252.57999999999998 C 258.74 256.49 256.94 259.26 254.94000000000003 260.87 C 252.95000000000002 262.51 250.51000000000002 263.34000000000003 247.64000000000001 263.34000000000003 C 246.07000000000002 263.34000000000003 244.62 263.18 243.34 262.87 C 242.08 262.56 240.82 262.08 239.56 261.45 L 241.45 256.94 C 242.39 257.42 243.31 257.78 244.23 257.99 C 245.14 258.23 246.2 258.36 247.42999999999998 258.36 C 249.14 258.36 250.58999999999997 257.83000000000004 251.79 256.79 C 252.97 255.77 254.13 253.90000000000003 255.25 251.17000000000002 L 237.93 213.17000000000002 L 244.18 213.17000000000002 L 258.09000000000003 244.98000000000002 L 270.32 213.17 z M 270.32 213.17" stroke-linecap="round" />
</g>
		<g transform="matrix(1 0 0 1 -304.23 82.9)"  >
<path style="stroke: none; stroke-width: 1; stroke-dasharray: none; stroke-linecap: butt; stroke-dashoffset: 0; stroke-linejoin: miter; stroke-miterlimit: 4; fill: rgb(59,97,85); fill-rule: evenodd; opacity: 1;" vector-effect="non-scaling-stroke"  transform=" translate(-295.76, -226.83)" d="M 300.27 252 C 298.76 252 297.34 251.79 296.02 251.37 C 294.68 250.99 293.53 250.37 292.56 249.53 C 291.62 248.66 290.86 247.53 290.31 246.17 C 289.78000000000003 244.78 289.52 243.10999999999999 289.52 241.19 L 289.52 218.2 L 284.21999999999997 218.2 L 284.21999999999997 213.16 L 289.52 213.16 L 289.52 201.67 L 295.19 201.67 L 295.19 213.16 L 307.31 213.16 L 307.31 218.2 L 295.19 218.2 L 295.19 240.45 C 295.19 242.83999999999997 295.78 244.48999999999998 296.96999999999997 245.44 C 298.15 246.35999999999999 299.7 246.8 301.59 246.8 C 302.59999999999997 246.8 303.53 246.72 304.36999999999995 246.54000000000002 C 305.23999999999995 246.33 306.16999999999996 245.99 307.1499999999999 245.49 L 307.1499999999999 250.37 C 306.1599999999999 250.9 305.11999999999995 251.3 303.99999999999994 251.58 C 302.91 251.86 301.66 252 300.27 252 z M 300.27 252" stroke-linecap="round" />
</g>
		<g transform="matrix(1 0 0 1 -263.87 80.45)"  >
<path style="stroke: none; stroke-width: 1; stroke-dasharray: none; stroke-linecap: butt; stroke-dashoffset: 0; stroke-linejoin: miter; stroke-miterlimit: 4; fill: rgb(59,97,85); fill-rule: evenodd; opacity: 1;" vector-effect="non-scaling-stroke"  transform=" translate(-336.13, -224.39)" d="M 319.46 197.47 L 325.13 197.47 L 325.13 219.82999999999998 C 326.42 217.76999999999998 328.1 216.02999999999997 330.17 214.57999999999998 C 332.23 213.10999999999999 334.91 212.38 338.2 212.38 C 340.51 212.38 342.56 212.75 344.34 213.48 C 346.15 214.20999999999998 347.66999999999996 215.26 348.90999999999997 216.63 C 350.16999999999996 217.97 351.13 219.57 351.79999999999995 221.46 C 352.44999999999993 223.32000000000002 352.79999999999995 225.38 352.79999999999995 227.65 L 352.79999999999995 251.32 L 347.12999999999994 251.32 L 347.12999999999994 229.01999999999998 C 347.12999999999994 225.48999999999998 346.2099999999999 222.7 344.3999999999999 220.61999999999998 C 342.5799999999999 218.55999999999997 339.9699999999999 217.51999999999998 336.5799999999999 217.51999999999998 C 334.9599999999999 217.51999999999998 333.4599999999999 217.80999999999997 332.05999999999995 218.35999999999999 C 330.65999999999997 218.92 329.43999999999994 219.74999999999997 328.38999999999993 220.82999999999998 C 327.36999999999995 221.88 326.55999999999995 223.14 325.9699999999999 224.60999999999999 C 325.4099999999999 226.07999999999998 325.12999999999994 227.70999999999998 325.12999999999994 229.48999999999998 L 325.12999999999994 251.32 L 319.4599999999999 251.32 L 319.4599999999999 197.47 z M 319.46 197.47" stroke-linecap="round" />
</g>
		<g transform="matrix(1 0 0 1 -229.56 81.01)"  >
<path style="stroke: none; stroke-width: 1; stroke-dasharray: none; stroke-linecap: butt; stroke-dashoffset: 0; stroke-linejoin: miter; stroke-miterlimit: 4; fill: rgb(59,97,85); fill-rule: evenodd; opacity: 1;" vector-effect="non-scaling-stroke"  transform=" translate(-370.44, -224.95)" d="M 367.21 198.58 L 373.66999999999996 198.58 L 373.66999999999996 204.83 L 367.21 204.83 L 367.21 198.58 z M 367.57 213.17 L 373.24 213.17 L 373.24 251.32 L 367.57 251.32 L 367.57 213.17 z M 367.57 213.17" stroke-linecap="round" />
</g>
		<g transform="matrix(1 0 0 1 -194.74 87.91)"  >
<path style="stroke: none; stroke-width: 1; stroke-dasharray: none; stroke-linecap: butt; stroke-dashoffset: 0; stroke-linejoin: miter; stroke-miterlimit: 4; fill: rgb(59,97,85); fill-rule: evenodd; opacity: 1;" vector-effect="non-scaling-stroke"  transform=" translate(-405.25, -231.85)" d="M 388.59 213.17 L 394.26 213.17 L 394.26 219.82999999999998 C 395.53999999999996 217.76999999999998 397.21999999999997 216.02999999999997 399.3 214.57999999999998 C 401.36 213.10999999999999 404.04 212.38 407.33 212.38 C 409.64 212.38 411.69 212.75 413.46999999999997 213.48 C 415.28 214.20999999999998 416.79999999999995 215.26 418.03999999999996 216.63 C 419.29999999999995 217.97 420.26 219.57 420.91999999999996 221.46 C 421.58 223.32000000000002 421.91999999999996 225.38 421.91999999999996 227.65 L 421.91999999999996 251.32 L 416.24999999999994 251.32 L 416.24999999999994 229.01999999999998 C 416.24999999999994 225.48999999999998 415.3299999999999 222.7 413.5199999999999 220.61999999999998 C 411.69999999999993 218.55999999999997 409.0899999999999 217.51999999999998 405.69999999999993 217.51999999999998 C 404.0799999999999 217.51999999999998 402.5799999999999 217.80999999999997 401.18999999999994 218.35999999999999 C 399.78999999999996 218.92 398.55999999999995 219.74999999999997 397.5199999999999 220.82999999999998 C 396.49999999999994 221.88 395.69999999999993 223.14 395.0999999999999 224.60999999999999 C 394.5399999999999 226.07999999999998 394.25999999999993 227.70999999999998 394.25999999999993 229.48999999999998 L 394.25999999999993 251.32 L 388.5899999999999 251.32 L 388.5899999999999 213.17 z M 388.59 213.17" stroke-linecap="round" />
</g>
		<g transform="matrix(1 0 0 1 -146.75 93.9)"  >
<path style="stroke: none; stroke-width: 1; stroke-dasharray: none; stroke-linecap: butt; stroke-dashoffset: 0; stroke-linejoin: miter; stroke-miterlimit: 4; fill: rgb(59,97,85); fill-rule: evenodd; opacity: 1;" vector-effect="non-scaling-stroke"  transform=" translate(-453.25, -237.84)" d="M 453.08 263.29 C 449.89 263.29 446.84999999999997 262.83000000000004 443.95 261.93 C 441.03999999999996 261.05 438.28999999999996 259.74 435.71 257.99 L 438.34 253.53 C 440.53999999999996 255.1 442.84999999999997 256.31 445.27 257.15 C 447.68 257.98999999999995 450.25 258.40999999999997 452.99 258.40999999999997 C 457.21000000000004 258.40999999999997 460.6 257.26 463.12 254.94999999999996 C 465.64 252.66999999999996 466.9 249.30999999999997 466.9 244.81999999999996 L 466.9 240.35999999999996 C 465.21999999999997 242.55999999999995 463.16999999999996 244.44999999999996 460.76 246.02999999999994 C 458.34999999999997 247.59999999999994 455.38 248.38999999999996 451.89 248.38999999999996 C 449.58 248.38999999999996 447.34999999999997 247.96999999999997 445.21999999999997 247.12999999999997 C 443.08 246.28999999999996 441.17999999999995 245.10999999999996 439.49999999999994 243.55999999999997 C 437.81999999999994 241.98999999999998 436.46999999999997 240.11999999999998 435.4599999999999 237.93999999999997 C 434.4799999999999 235.73999999999998 433.9899999999999 233.26999999999998 433.9899999999999 230.53999999999996 L 433.9899999999999 230.37999999999997 C 433.9899999999999 227.58999999999997 434.4799999999999 225.07999999999996 435.4599999999999 222.87999999999997 C 436.4699999999999 220.64999999999998 437.81999999999994 218.75999999999996 439.49999999999994 217.20999999999998 C 441.17999999999995 215.64 443.09999999999997 214.45 445.2799999999999 213.64 C 447.43999999999994 212.79999999999998 449.6499999999999 212.38 451.88999999999993 212.38 C 453.6699999999999 212.38 455.30999999999995 212.59 456.81999999999994 213.01 C 458.31999999999994 213.42999999999998 459.66999999999996 213.98999999999998 460.85999999999996 214.69 C 462.08 215.35999999999999 463.17999999999995 216.16 464.16999999999996 217.10999999999999 C 465.14 218.02999999999997 466.02 218.99999999999997 466.78999999999996 220.04999999999998 L 466.78999999999996 213.17999999999998 L 472.51 213.17999999999998 L 472.51 244.67 C 472.51 247.64999999999998 472.09 250.26 471.25 252.48999999999998 C 470.41 254.71999999999997 469.2 256.64 467.63 258.21 C 465.90999999999997 259.90999999999997 463.81 261.2 461.33 262.03999999999996 C 458.87 262.87 456.13 263.29 453.08 263.29 z M 452.98 243.34 C 454.83000000000004 243.34 456.57 243.05 458.23 242.45000000000002 C 459.91 241.82000000000002 461.39000000000004 240.93 462.69 239.77 C 464.02 238.61 465.06 237.25 465.84 235.68 C 466.64 234.11 467.04999999999995 232.36 467.04999999999995 230.43 L 467.04999999999995 230.27 C 467.04999999999995 228.31 466.63999999999993 226.54000000000002 465.84 224.97 C 465.07 223.4 464.02 222.06 462.69 220.93 C 461.39 219.78 459.91 218.91 458.23 218.31 C 456.58000000000004 217.68 454.83000000000004 217.37 452.98 217.37 C 451.16 217.37 449.44 217.68 447.83000000000004 218.31 C 446.26000000000005 218.91 444.85 219.77 443.63000000000005 220.88 C 442.44000000000005 222.01 441.49000000000007 223.35 440.80000000000007 224.92 C 440.13000000000005 226.48999999999998 439.80000000000007 228.26999999999998 439.80000000000007 230.22 L 439.80000000000007 230.38 C 439.80000000000007 232.31 440.14000000000004 234.07999999999998 440.8500000000001 235.68 C 441.5800000000001 237.25 442.5400000000001 238.62 443.7300000000001 239.77 C 444.9100000000001 240.9 446.32000000000005 241.76000000000002 447.93000000000006 242.39000000000001 C 449.54 243.03 451.22 243.34 452.98 243.34 z M 452.98 243.34" stroke-linecap="round" />
</g>
		<g transform="matrix(1 0 0 1 -69.16 80.85)"  >
<path style="stroke: none; stroke-width: 1; stroke-dasharray: none; stroke-linecap: butt; stroke-dashoffset: 0; stroke-linejoin: miter; stroke-miterlimit: 4; fill: rgb(59,97,85); fill-rule: evenodd; opacity: 1;" vector-effect="non-scaling-stroke"  transform=" translate(-530.84, -224.79)" d="M 531.89 252.11 C 530.11 252.11 528.48 251.87 527.01 251.43 C 525.54 251.01000000000002 524.2 250.43 523.02 249.70000000000002 C 521.8199999999999 248.96 520.74 248.11 519.76 247.13000000000002 C 518.8199999999999 246.16000000000003 517.98 245.12000000000003 517.24 244.03000000000003 L 517.24 251.32000000000002 L 511.57 251.32000000000002 L 511.57 197.47000000000003 L 517.24 197.47000000000003 L 517.24 220.83000000000004 C 518.04 219.72000000000003 518.92 218.65000000000003 519.87 217.63000000000005 C 520.84 216.58000000000004 521.92 215.68000000000006 523.07 214.90000000000006 C 524.25 214.14000000000007 525.5600000000001 213.52000000000007 527.0100000000001 213.06000000000006 C 528.4800000000001 212.62000000000006 530.1100000000001 212.38000000000005 531.8900000000001 212.38000000000005 C 534.1200000000001 212.38000000000005 536.3300000000002 212.82000000000005 538.5000000000001 213.69000000000005 C 540.7000000000002 214.57000000000005 542.6600000000001 215.87000000000006 544.3800000000001 217.58000000000004 C 546.1200000000001 219.26000000000005 547.5000000000001 221.33000000000004 548.5300000000001 223.77000000000004 C 549.58 226.19000000000003 550.1000000000001 228.97000000000003 550.1000000000001 232.11000000000004 L 550.1000000000001 232.27000000000004 C 550.1000000000001 235.39000000000004 549.5700000000002 238.17000000000004 548.5300000000001 240.61000000000004 C 547.5100000000001 243.07000000000005 546.1400000000001 245.15000000000003 544.44 246.86000000000004 C 542.7600000000001 248.54000000000005 540.82 249.84000000000003 538.61 250.74000000000004 C 536.43 251.65 534.21 252.11 531.89 252.11 z M 530.85 247.02 C 532.66 247.02 534.39 246.69 536.0500000000001 246.02 C 537.69 245.37 539.11 244.42000000000002 540.3000000000001 243.19 C 541.5200000000001 241.93 542.48 240.4 543.19 238.57 C 543.9200000000001 236.76 544.2900000000001 234.69 544.2900000000001 232.38 L 544.2900000000001 232.22 C 544.2900000000001 229.95 543.9200000000001 227.9 543.19 226.08 C 542.48 224.27 541.5200000000001 222.72 540.3000000000001 221.46 C 539.07 220.18 537.6400000000001 219.19 536.0000000000001 218.52 C 534.3900000000001 217.82000000000002 532.6700000000001 217.47 530.8600000000001 217.47 C 529.0700000000002 217.47 527.3600000000001 217.83 525.7200000000001 218.52 C 524.0700000000002 219.23000000000002 522.6000000000001 220.24 521.3100000000002 221.56 C 520.0100000000002 222.86 518.9700000000001 224.42000000000002 518.2100000000002 226.23 C 517.4400000000002 228.01 517.0600000000002 229.98 517.0600000000002 232.10999999999999 L 517.0600000000002 232.26999999999998 C 517.0600000000002 234.51999999999998 517.4400000000002 236.54999999999998 518.2100000000002 238.35999999999999 C 518.9700000000001 240.17999999999998 520.0100000000001 241.74999999999997 521.3100000000002 243.02999999999997 C 522.5900000000001 244.28999999999996 524.0700000000002 245.27999999999997 525.7200000000001 245.96999999999997 C 527.34 246.68 529.06 247.02 530.85 247.02 z M 530.85 247.02" stroke-linecap="round" />
</g>
		<g transform="matrix(1 0 0 1 -21.23 88.69)"  >
<path style="stroke: none; stroke-width: 1; stroke-dasharray: none; stroke-linecap: butt; stroke-dashoffset: 0; stroke-linejoin: miter; stroke-miterlimit: 4; fill: rgb(59,97,85); fill-rule: evenodd; opacity: 1;" vector-effect="non-scaling-stroke"  transform=" translate(-578.77, -232.64)" d="M 576.73 252.11 C 574.4200000000001 252.11 572.35 251.74 570.54 251.01000000000002 C 568.75 250.28000000000003 567.23 249.25000000000003 565.9699999999999 247.91000000000003 C 564.7399999999999 246.55 563.79 244.94000000000003 563.1399999999999 243.08 C 562.4699999999999 241.19000000000003 562.1399999999999 239.12 562.1399999999999 236.83 L 562.1399999999999 213.16000000000003 L 567.8099999999998 213.16000000000003 L 567.8099999999998 235.46000000000004 C 567.8099999999998 239.00000000000003 568.7199999999998 241.80000000000004 570.5399999999998 243.86000000000004 C 572.3499999999998 245.93000000000004 574.9599999999998 246.96000000000004 578.3599999999999 246.96000000000004 C 579.9599999999999 246.96000000000004 581.4699999999999 246.69000000000003 582.8799999999999 246.12000000000003 C 584.3099999999998 245.57000000000002 585.5199999999999 244.76000000000002 586.4999999999999 243.71000000000004 C 587.5099999999999 242.63000000000002 588.3099999999998 241.35000000000002 588.9099999999999 239.88000000000002 C 589.4999999999999 238.41000000000003 589.7999999999998 236.78000000000003 589.7999999999998 235.00000000000003 L 589.7999999999998 213.17000000000002 L 595.4099999999999 213.17000000000002 L 595.4099999999999 251.32000000000002 L 589.7999999999998 251.32000000000002 L 589.7999999999998 244.66000000000003 C 588.4999999999999 246.76000000000002 586.8199999999998 248.53000000000003 584.7599999999999 249.96000000000004 C 582.68 251.39 580 252.11 576.73 252.11 z M 576.73 252.11" stroke-linecap="round" />
</g>
		<g transform="matrix(1 0 0 1 18.53 82.9)"  >
<path style="stroke: none; stroke-width: 1; stroke-dasharray: none; stroke-linecap: butt; stroke-dashoffset: 0; stroke-linejoin: miter; stroke-miterlimit: 4; fill: rgb(59,97,85); fill-rule: evenodd; opacity: 1;" vector-effect="non-scaling-stroke"  transform=" translate(-618.53, -226.83)" d="M 623.05 252 C 621.54 252 620.12 251.79 618.8 251.37 C 617.4599999999999 250.99 616.31 250.37 615.3399999999999 249.53 C 614.3999999999999 248.66 613.6299999999999 247.53 613.0799999999999 246.17 C 612.55 244.78 612.29 243.10999999999999 612.29 241.19 L 612.29 218.2 L 606.99 218.2 L 606.99 213.16 L 612.29 213.16 L 612.29 201.67 L 617.9599999999999 201.67 L 617.9599999999999 213.16 L 630.0799999999999 213.16 L 630.0799999999999 218.2 L 617.9599999999999 218.2 L 617.9599999999999 240.45 C 617.9599999999999 242.83999999999997 618.55 244.48999999999998 619.7499999999999 245.44 C 620.9299999999998 246.35999999999999 622.4799999999999 246.8 624.3699999999999 246.8 C 625.3799999999999 246.8 626.31 246.72 627.1499999999999 246.54000000000002 C 628.0199999999999 246.33 628.9399999999998 245.99 629.9299999999998 245.49 L 629.9299999999998 250.37 C 628.9399999999998 250.9 627.8999999999999 251.3 626.7799999999999 251.58 C 625.69 251.86 624.44 252 623.05 252 z M 623.05 252" stroke-linecap="round" />
</g>
		<g transform="matrix(1 0 0 1 74.75 82.9)"  >
<path style="stroke: none; stroke-width: 1; stroke-dasharray: none; stroke-linecap: butt; stroke-dashoffset: 0; stroke-linejoin: miter; stroke-miterlimit: 4; fill: rgb(59,97,85); fill-rule: evenodd; opacity: 1;" vector-effect="non-scaling-stroke"  transform=" translate(-674.75, -226.83)" d="M 679.27 252 C 677.76 252 676.34 251.79 675.02 251.37 C 673.68 250.99 672.53 250.37 671.56 249.53 C 670.6199999999999 248.66 669.8499999999999 247.53 669.3 246.17 C 668.77 244.78 668.51 243.10999999999999 668.51 241.19 L 668.51 218.2 L 663.21 218.2 L 663.21 213.16 L 668.51 213.16 L 668.51 201.67 L 674.18 201.67 L 674.18 213.16 L 686.3 213.16 L 686.3 218.2 L 674.18 218.2 L 674.18 240.45 C 674.18 242.83999999999997 674.77 244.48999999999998 675.9699999999999 245.44 C 677.1499999999999 246.35999999999999 678.6999999999999 246.8 680.5899999999999 246.8 C 681.5999999999999 246.8 682.53 246.72 683.3699999999999 246.54000000000002 C 684.2399999999999 246.33 685.1699999999998 245.99 686.1499999999999 245.49 L 686.1499999999999 250.37 C 685.1699999999998 250.9 684.1199999999999 251.3 682.9999999999999 251.58 C 681.91 251.86 680.67 252 679.27 252 z M 679.27 252" stroke-linecap="round" />
</g>
		<g transform="matrix(1 0 0 1 115.13 80.45)"  >
<path style="stroke: none; stroke-width: 1; stroke-dasharray: none; stroke-linecap: butt; stroke-dashoffset: 0; stroke-linejoin: miter; stroke-miterlimit: 4; fill: rgb(59,97,85); fill-rule: evenodd; opacity: 1;" vector-effect="non-scaling-stroke"  transform=" translate(-715.13, -224.39)" d="M 698.47 197.47 L 704.14 197.47 L 704.14 219.82999999999998 C 705.42 217.76999999999998 707.1 216.02999999999997 709.18 214.57999999999998 C 711.2399999999999 213.10999999999999 713.92 212.38 717.2099999999999 212.38 C 719.5199999999999 212.38 721.5699999999999 212.75 723.3499999999999 213.48 C 725.1599999999999 214.20999999999998 726.68 215.26 727.92 216.63 C 729.18 217.97 730.14 219.57 730.8 221.46 C 731.4599999999999 223.32000000000002 731.8 225.38 731.8 227.65 L 731.8 251.32 L 726.13 251.32 L 726.13 229.01999999999998 C 726.13 225.48999999999998 725.21 222.7 723.4 220.61999999999998 C 721.5799999999999 218.55999999999997 718.97 217.51999999999998 715.5799999999999 217.51999999999998 C 713.9699999999999 217.51999999999998 712.4599999999999 217.80999999999997 711.0699999999999 218.35999999999999 C 709.67 218.92 708.4399999999999 219.74999999999997 707.4 220.82999999999998 C 706.38 221.88 705.5799999999999 223.14 704.98 224.60999999999999 C 704.4200000000001 226.07999999999998 704.14 227.70999999999998 704.14 229.48999999999998 L 704.14 251.32 L 698.47 251.32 L 698.47 197.47 z M 698.47 197.47" stroke-linecap="round" />
</g>
		<g transform="matrix(1 0 0 1 161.73 88.36)"  >
<path style="stroke: none; stroke-width: 1; stroke-dasharray: none; stroke-linecap: butt; stroke-dashoffset: 0; stroke-linejoin: miter; stroke-miterlimit: 4; fill: rgb(59,97,85); fill-rule: evenodd; opacity: 1;" vector-effect="non-scaling-stroke"  transform=" translate(-761.73, -232.3)" d="M 762.75 252.22 C 760.12 252.22 757.66 251.75 755.35 250.8 C 753.0400000000001 249.83 751.02 248.46 749.3100000000001 246.71 C 747.59 244.97 746.23 242.88 745.22 240.46 C 744.2 238.02 743.7 235.32000000000002 743.7 232.38 L 743.7 232.22 C 743.7 229.46 744.1400000000001 226.87 745.0600000000001 224.45 C 745.96 222.03 747.22 219.94 748.84 218.14999999999998 C 750.48 216.35999999999999 752.4200000000001 214.98 754.6700000000001 213.95 C 756.9000000000001 212.89999999999998 759.35 212.38 762.0200000000001 212.38 C 764.82 212.38 767.32 212.9 769.5300000000001 213.95 C 771.7300000000001 215 773.58 216.44 775.09 218.25 C 776.63 220.08 777.7800000000001 222.21 778.5500000000001 224.66 C 779.35 227.07 779.7600000000001 229.69 779.7600000000001 232.48 C 779.7600000000001 232.89999999999998 779.7600000000001 233.23999999999998 779.7600000000001 233.48 C 779.7600000000001 233.73 779.7300000000001 234.03 779.7100000000002 234.36999999999998 L 749.4800000000001 234.36999999999998 C 749.6500000000001 236.43999999999997 750.1200000000001 238.27999999999997 750.9000000000001 239.87999999999997 C 751.7 241.44999999999996 752.7 242.80999999999997 753.8900000000001 243.91999999999996 C 755.1100000000001 245.00999999999996 756.4800000000001 245.84999999999997 757.9800000000001 246.43999999999997 C 759.5100000000001 247.00999999999996 761.1400000000001 247.27999999999997 762.8600000000001 247.27999999999997 C 765.5100000000001 247.27999999999997 767.7900000000001 246.79999999999998 769.6800000000002 245.80999999999997 C 771.5900000000001 244.79999999999998 773.3500000000001 243.48999999999998 774.9300000000002 241.86999999999998 L 778.4500000000002 245.01999999999998 C 776.5200000000002 247.2 774.3300000000002 248.93999999999997 771.8900000000002 250.26999999999998 C 769.42 251.56 766.38 252.22 762.75 252.22 z M 774.03 230.12 C 773.89 228.41 773.52 226.76 772.93 225.19 C 772.37 223.62 771.5799999999999 222.25 770.5699999999999 221.1 C 769.5799999999999 219.92 768.3699999999999 218.97 766.9 218.26999999999998 C 765.4599999999999 217.54 763.78 217.17 761.86 217.17 C 760.1800000000001 217.17 758.62 217.51 757.19 218.17 C 755.75 218.83999999999997 754.49 219.73999999999998 753.4100000000001 220.89999999999998 C 752.3600000000001 222.04999999999998 751.4800000000001 223.42 750.7900000000001 224.98999999999998 C 750.08 226.55999999999997 749.6500000000001 228.27999999999997 749.4800000000001 230.12999999999997 L 774.03 230.12999999999997 z M 774.03 230.12" stroke-linecap="round" />
</g>
		<g transform="matrix(1 0 0 1 233.67 88.38)"  >
<path style="stroke: none; stroke-width: 1; stroke-dasharray: none; stroke-linecap: butt; stroke-dashoffset: 0; stroke-linejoin: miter; stroke-miterlimit: 4; fill: rgb(59,97,85); fill-rule: evenodd; opacity: 1;" vector-effect="non-scaling-stroke"  transform=" translate(-833.67, -232.31)" d="M 833.57 252.22 C 830.69 252.22 828.0600000000001 251.69 825.6400000000001 250.65 C 823.2200000000001 249.57 821.1300000000001 248.13 819.3400000000001 246.35 C 817.5800000000002 244.56 816.2200000000001 242.48999999999998 815.2500000000001 240.10999999999999 C 814.2700000000001 237.69 813.7800000000001 235.14999999999998 813.7800000000001 232.45 L 813.7800000000001 232.29 C 813.7800000000001 229.6 814.2700000000001 227.04 815.2500000000001 224.63 C 816.2200000000001 222.21 817.5900000000001 220.1 819.3400000000001 218.28 C 821.1300000000001 216.47 823.2400000000001 215.03 825.6900000000002 213.98 C 828.1300000000002 212.92999999999998 830.8100000000002 212.41 833.7200000000001 212.41 C 836.5500000000002 212.41 839.1800000000002 212.93 841.5900000000001 213.98 C 844.0300000000002 215.03 846.1600000000002 216.47 847.9400000000002 218.28 C 849.7200000000001 220.07 851.1000000000001 222.15 852.0800000000002 224.53 C 853.0500000000002 226.92 853.5500000000002 229.45 853.5500000000002 232.14000000000001 L 853.5500000000002 232.3 C 853.5500000000002 235.03 853.0400000000002 237.60000000000002 852.0300000000002 240.02 C 851.0100000000002 242.41 849.6100000000002 244.51000000000002 847.8300000000002 246.32000000000002 C 846.0700000000002 248.15000000000003 843.9600000000002 249.60000000000002 841.4800000000001 250.68000000000004 C 839.04 251.69 836.4 252.22 833.57 252.22 z M 833.73 247.12 C 835.79 247.12 837.6800000000001 246.74 839.4 245.96 C 841.11 245.16 842.5699999999999 244.1 843.81 242.76000000000002 C 845.03 241.43 845.9899999999999 239.9 846.6999999999999 238.14000000000001 C 847.39 236.35000000000002 847.7499999999999 234.45000000000002 847.7499999999999 232.42000000000002 L 847.7499999999999 232.26000000000002 C 847.7499999999999 230.20000000000002 847.3799999999999 228.27 846.6499999999999 226.49 C 845.9399999999998 224.70000000000002 844.9399999999998 223.13 843.6599999999999 221.77 C 842.3999999999999 220.41 840.8899999999999 219.34 839.1499999999999 218.57000000000002 C 837.4299999999998 217.77 835.5799999999998 217.36 833.5899999999999 217.36 C 831.5099999999999 217.36 829.6099999999999 217.77 827.8699999999999 218.57000000000002 C 826.1499999999999 219.34000000000003 824.6799999999998 220.40000000000003 823.4599999999999 221.72000000000003 C 822.2699999999999 223.06000000000003 821.3199999999999 224.63000000000002 820.6299999999999 226.44000000000003 C 819.9599999999999 228.23000000000002 819.6299999999999 230.11 819.6299999999999 232.11 L 819.6299999999999 232.27 C 819.6299999999999 234.35000000000002 819.9699999999999 236.29000000000002 820.6799999999998 238.10000000000002 C 821.4099999999999 239.89000000000001 822.3899999999999 241.45000000000002 823.6199999999999 242.77 C 824.8799999999999 244.11 826.3599999999999 245.17000000000002 828.0799999999999 245.97 C 829.8 246.74 831.69 247.12 833.73 247.12 z M 833.73 247.12" stroke-linecap="round" />
</g>
		<g transform="matrix(1 0 0 1 276.58 87.97)"  >
<path style="stroke: none; stroke-width: 1; stroke-dasharray: none; stroke-linecap: butt; stroke-dashoffset: 0; stroke-linejoin: miter; stroke-miterlimit: 4; fill: rgb(59,97,85); fill-rule: evenodd; opacity: 1;" vector-effect="non-scaling-stroke"  transform=" translate(-876.58, -231.9)" d="M 865.95 213.17 L 871.62 213.17 L 871.62 223.14 C 872.32 221.57 873.17 220.11999999999998 874.19 218.77999999999997 C 875.24 217.44999999999996 876.4200000000001 216.30999999999997 877.7600000000001 215.36999999999998 C 879.0900000000001 214.39999999999998 880.5400000000001 213.65999999999997 882.1200000000001 213.17 C 883.6900000000002 212.69 885.3900000000001 212.45999999999998 887.2100000000002 212.48999999999998 L 887.2100000000002 218.62999999999997 L 886.7400000000001 218.62999999999997 C 884.6700000000001 218.62999999999997 882.7100000000002 218.99999999999997 880.8600000000001 219.72999999999996 C 879.0300000000001 220.45999999999995 877.4200000000001 221.58999999999997 876.0300000000001 223.08999999999997 C 874.6700000000001 224.55999999999997 873.58 226.39999999999998 872.7800000000001 228.59999999999997 C 872.0100000000001 230.77999999999997 871.6200000000001 233.26999999999995 871.6200000000001 236.09999999999997 L 871.6200000000001 251.31999999999996 L 865.9500000000002 251.31999999999996 L 865.9500000000002 213.17 z M 865.95 213.17" stroke-linecap="round" />
</g>
		<g transform="matrix(1 0 0 1 315.02 80.86)"  >
<path style="stroke: none; stroke-width: 1; stroke-dasharray: none; stroke-linecap: butt; stroke-dashoffset: 0; stroke-linejoin: miter; stroke-miterlimit: 4; fill: rgb(59,97,85); fill-rule: evenodd; opacity: 1;" vector-effect="non-scaling-stroke"  transform=" translate(-915.02, -224.79)" d="M 913.97 252.11 C 911.6600000000001 252.11 909.4200000000001 251.67000000000002 907.25 250.8 C 905.07 249.93 903.13 248.65 901.42 246.97 C 899.6999999999999 245.26 898.3199999999999 243.19 897.27 240.78 C 896.25 238.34 895.75 235.53 895.75 232.38 L 895.75 232.22 C 895.75 229.10999999999999 896.25 226.33 897.27 223.88 C 898.3199999999999 221.44 899.6999999999999 219.35999999999999 901.42 217.69 C 903.12 215.98 905.0699999999999 214.67 907.25 213.75 C 909.41 212.85 911.66 212.39 913.97 212.39 C 915.76 212.39 917.38 212.63 918.85 213.07 C 920.32 213.48999999999998 921.63 214.07 922.7900000000001 214.79999999999998 C 923.97 215.54 925.0500000000001 216.39999999999998 925.9900000000001 217.36999999999998 C 926.9600000000002 218.35999999999999 927.8300000000002 219.39 928.5600000000002 220.46999999999997 L 928.5600000000002 197.47999999999996 L 934.2800000000002 197.47999999999996 L 934.2800000000002 251.32999999999996 L 928.5600000000002 251.32999999999996 L 928.5600000000002 243.66999999999996 C 927.7900000000002 244.79999999999995 926.9100000000002 245.86999999999995 925.9400000000002 246.91999999999996 C 925.0000000000001 247.93999999999997 923.9200000000002 248.84999999999997 922.7400000000001 249.64999999999995 C 921.5900000000001 250.41999999999996 920.2700000000001 251.00999999999996 918.8000000000001 251.43999999999994 C 917.36 251.87 915.76 252.11 913.97 252.11 z M 915.02 247.02 C 916.76 247.02 918.46 246.68 920.11 245.97 C 921.79 245.28 923.27 244.28 924.57 242.98 C 925.85 241.66 926.8900000000001 240.1 927.6700000000001 238.31 C 928.4300000000001 236.52 928.83 234.52 928.83 232.27 L 928.83 232.11 C 928.83 229.91000000000003 928.44 227.91000000000003 927.6700000000001 226.13000000000002 C 926.9000000000001 224.35000000000002 925.8600000000001 222.81000000000003 924.57 221.51000000000002 C 923.2700000000001 220.22000000000003 921.7900000000001 219.23000000000002 920.11 218.52 C 918.46 217.82000000000002 916.76 217.47 915.02 217.47 C 913.13 217.47 911.36 217.81 909.72 218.47 C 908.1 219.14 906.7 220.1 905.52 221.35999999999999 C 904.3199999999999 222.58999999999997 903.37 224.11999999999998 902.63 225.92999999999998 C 901.92 227.74999999999997 901.58 229.80999999999997 901.58 232.11999999999998 L 901.58 232.27999999999997 C 901.58 234.55999999999997 901.9200000000001 236.60999999999999 902.63 238.41999999999996 C 903.36 240.24999999999997 904.34 241.80999999999995 905.57 243.08999999999995 C 906.7900000000001 244.34999999999994 908.21 245.32999999999996 909.82 246.02999999999994 C 911.47 246.69 913.2 247.02 915.02 247.02 z M 915.02 247.02" stroke-linecap="round" />
</g>
		<g transform="matrix(1 0 0 1 352.48 81.01)"  >
<path style="stroke: none; stroke-width: 1; stroke-dasharray: none; stroke-linecap: butt; stroke-dashoffset: 0; stroke-linejoin: miter; stroke-miterlimit: 4; fill: rgb(59,97,85); fill-rule: evenodd; opacity: 1;" vector-effect="non-scaling-stroke"  transform=" translate(-952.48, -224.95)" d="M 949.25 198.58 L 955.71 198.58 L 955.71 204.83 L 949.25 204.83 L 949.25 198.58 z M 949.62 213.17 L 955.29 213.17 L 955.29 251.32 L 949.62 251.32 L 949.62 213.17 z M 949.62 213.17" stroke-linecap="round" />
</g>
		<g transform="matrix(1 0 0 1 387.3 87.91)"  >
<path style="stroke: none; stroke-width: 1; stroke-dasharray: none; stroke-linecap: butt; stroke-dashoffset: 0; stroke-linejoin: miter; stroke-miterlimit: 4; fill: rgb(59,97,85); fill-rule: evenodd; opacity: 1;" vector-effect="non-scaling-stroke"  transform=" translate(-987.3, -231.85)" d="M 970.64 213.17 L 976.31 213.17 L 976.31 219.82999999999998 C 977.5999999999999 217.76999999999998 979.28 216.02999999999997 981.3499999999999 214.57999999999998 C 983.4099999999999 213.10999999999999 986.0899999999999 212.38 989.3799999999999 212.38 C 991.6899999999998 212.38 993.7399999999999 212.75 995.5199999999999 213.48 C 997.3299999999998 214.20999999999998 998.8499999999999 215.26 1000.0899999999999 216.63 C 1001.3499999999999 217.97 1002.31 219.57 1002.9699999999999 221.46 C 1003.6299999999999 223.32000000000002 1003.9699999999999 225.38 1003.9699999999999 227.65 L 1003.9699999999999 251.32 L 998.3 251.32 L 998.3 229.01999999999998 C 998.3 225.48999999999998 997.38 222.7 995.5699999999999 220.61999999999998 C 993.7499999999999 218.55999999999997 991.14 217.51999999999998 987.7499999999999 217.51999999999998 C 986.1299999999999 217.51999999999998 984.6299999999999 217.80999999999997 983.2399999999999 218.35999999999999 C 981.8399999999999 218.92 980.6099999999999 219.74999999999997 979.5699999999999 220.82999999999998 C 978.55 221.88 977.7499999999999 223.14 977.15 224.60999999999999 C 976.59 226.07999999999998 976.31 227.70999999999998 976.31 229.48999999999998 L 976.31 251.32 L 970.64 251.32 L 970.64 213.17 z M 970.64 213.17" stroke-linecap="round" />
</g>
		<g transform="matrix(1 0 0 1 432.07 88.44)"  >
<path style="stroke: none; stroke-width: 1; stroke-dasharray: none; stroke-linecap: butt; stroke-dashoffset: 0; stroke-linejoin: miter; stroke-miterlimit: 4; fill: rgb(59,97,85); fill-rule: evenodd; opacity: 1;" vector-effect="non-scaling-stroke"  transform=" translate(-1032.06, -232.38)" d="M 1029.56 252.11 C 1027.8 252.11 1026.07 251.86 1024.36 251.38000000000002 C 1022.68 250.90000000000003 1021.1599999999999 250.16000000000003 1019.7899999999998 249.18000000000004 C 1018.4299999999998 248.17000000000004 1017.3399999999998 246.92000000000004 1016.5399999999998 245.45000000000005 C 1015.7299999999999 243.95000000000005 1015.3299999999998 242.22000000000006 1015.3299999999998 240.25000000000006 L 1015.3299999999998 240.09000000000006 C 1015.3299999999998 238.09000000000006 1015.7099999999998 236.34000000000006 1016.4799999999998 234.79000000000005 C 1017.2799999999997 233.26000000000005 1018.3999999999997 231.98000000000005 1019.8399999999998 230.96000000000004 C 1021.3099999999998 229.91000000000003 1023.0399999999998 229.12000000000003 1025.0399999999997 228.60000000000002 C 1027.0299999999997 228.05 1029.2399999999998 227.76000000000002 1031.6499999999996 227.76000000000002 C 1034.0899999999997 227.76000000000002 1036.2299999999996 227.92000000000002 1038.0499999999997 228.23000000000002 C 1039.8599999999997 228.52 1041.6299999999997 228.9 1043.3499999999997 229.39000000000001 L 1043.3499999999997 228.08 C 1043.3499999999997 224.66000000000003 1042.3499999999997 222.07000000000002 1040.3599999999997 220.31 C 1038.3599999999997 218.57 1035.5799999999997 217.69 1032.0199999999998 217.69 C 1029.7399999999998 217.69 1027.6699999999998 217.95 1025.8299999999997 218.48 C 1024.0099999999998 218.98 1022.2099999999997 219.64 1020.4199999999997 220.47 L 1018.7399999999998 215.85 C 1020.8399999999998 214.88 1022.9699999999998 214.10999999999999 1025.1399999999999 213.54 C 1027.31 212.95 1029.78 212.65 1032.59 212.65 C 1038.01 212.65 1042.12 214.05 1044.9199999999998 216.85 C 1047.5099999999998 219.48 1048.8 223.2 1048.8 228.03 L 1048.8 251.33 L 1043.34 251.33 L 1043.34 245.56 C 1042 247.32 1040.22 248.85 1037.99 250.18 C 1035.77 251.45 1032.95 252.11 1029.56 252.11 z M 1030.72 247.65 C 1032.46 247.65 1034.1100000000001 247.39000000000001 1035.65 246.86 C 1037.22 246.33 1038.5900000000001 245.63000000000002 1039.74 244.71 C 1040.89 243.81 1041.8 242.72 1042.47 241.46 C 1043.13 240.20000000000002 1043.47 238.82000000000002 1043.47 237.31 L 1043.47 233.64000000000001 C 1042.03 233.22000000000003 1040.39 232.85000000000002 1038.54 232.54000000000002 C 1036.72 232.20000000000002 1034.62 232.01000000000002 1032.24 232.01000000000002 C 1028.63 232.01000000000002 1025.86 232.73000000000002 1023.95 234.16000000000003 C 1022.0600000000001 235.56000000000003 1021.12 237.47000000000003 1021.12 239.88000000000002 L 1021.12 240.04000000000002 C 1021.12 241.23000000000002 1021.36 242.3 1021.85 243.24 C 1022.38 244.18 1023.07 245 1023.95 245.65 C 1024.8600000000001 246.28 1025.89 246.78 1027.05 247.12 C 1028.2 247.48 1029.42 247.65 1030.72 247.65 z M 1030.72 247.65" stroke-linecap="round" />
</g>
		<g transform="matrix(1 0 0 1 473.71 87.97)"  >
<path style="stroke: none; stroke-width: 1; stroke-dasharray: none; stroke-linecap: butt; stroke-dashoffset: 0; stroke-linejoin: miter; stroke-miterlimit: 4; fill: rgb(59,97,85); fill-rule: evenodd; opacity: 1;" vector-effect="non-scaling-stroke"  transform=" translate(-1073.71, -231.9)" d="M 1063.08 213.17 L 1068.75 213.17 L 1068.75 223.14 C 1069.45 221.57 1070.3 220.11999999999998 1071.32 218.77999999999997 C 1072.37 217.44999999999996 1073.55 216.30999999999997 1074.8899999999999 215.36999999999998 C 1076.2199999999998 214.39999999999998 1077.6699999999998 213.65999999999997 1079.2499999999998 213.17 C 1080.8199999999997 212.69 1082.5199999999998 212.45999999999998 1084.3399999999997 212.48999999999998 L 1084.3399999999997 218.62999999999997 L 1083.8699999999997 218.62999999999997 C 1081.7999999999997 218.62999999999997 1079.8399999999997 218.99999999999997 1077.9899999999996 219.72999999999996 C 1076.1599999999996 220.45999999999995 1074.5499999999995 221.58999999999997 1073.1599999999996 223.08999999999997 C 1071.7999999999997 224.55999999999997 1070.7099999999996 226.39999999999998 1069.9099999999996 228.59999999999997 C 1069.1399999999996 230.77999999999997 1068.7499999999995 233.26999999999995 1068.7499999999995 236.09999999999997 L 1068.7499999999995 251.31999999999996 L 1063.0799999999995 251.31999999999996 L 1063.0799999999995 213.17 z M 1063.08 213.17" stroke-linecap="round" />
</g>
		<g transform="matrix(1 0 0 1 510.47 94.32)"  >
<path style="stroke: none; stroke-width: 1; stroke-dasharray: none; stroke-linecap: butt; stroke-dashoffset: 0; stroke-linejoin: miter; stroke-miterlimit: 4; fill: rgb(59,97,85); fill-rule: evenodd; opacity: 1;" vector-effect="non-scaling-stroke"  transform=" translate(-1110.48, -238.25)" d="M 1123.65 213.17 L 1129.69 213.17 L 1113.68 252.57999999999998 C 1112.0600000000002 256.49 1110.27 259.26 1108.27 260.87 C 1106.28 262.51 1103.84 263.34000000000003 1100.97 263.34000000000003 C 1099.4 263.34000000000003 1097.95 263.18 1096.67 262.87 C 1095.41 262.56 1094.15 262.08 1092.89 261.45 L 1094.7800000000002 256.94 C 1095.7200000000003 257.42 1096.64 257.78 1097.5600000000002 257.99 C 1098.4700000000003 258.23 1099.5300000000002 258.36 1100.7600000000002 258.36 C 1102.4600000000003 258.36 1103.9200000000003 257.83000000000004 1105.1200000000001 256.79 C 1106.3000000000002 255.77 1107.46 253.90000000000003 1108.5800000000002 251.17000000000002 L 1091.2600000000002 213.17000000000002 L 1097.5000000000002 213.17000000000002 L 1111.4100000000003 244.98000000000002 L 1123.65 213.17 z M 1123.65 213.17" stroke-linecap="round" />
</g>
		<g transform="matrix(1 0 0 1 -514.52 -47.57)"  >
<path style="stroke: none; stroke-width: 1; stroke-dasharray: none; stroke-linecap: butt; stroke-dashoffset: 0; stroke-linejoin: miter; stroke-miterlimit: 4; fill: rgb(59,97,85); fill-rule: evenodd; opacity: 1;" vector-effect="non-scaling-stroke"  transform=" translate(-85.48, -96.37)" d="M 31 137.59 L 33.99 139.27 C 46.300000000000004 134.56 52.25 134.16 55.84 136.18 C 62.730000000000004 140.05 61.36 154.06 77.69 163.25 C 93.12 171.92 116.22 171.5 132.22 143.04 C 147.3 116.22 138 97 124.22 89.25 C 113.88 83.43 103.49 85.09 95.15 89.07 L 95 88.99 L 123.64 38.059999999999995 C 109.76 35 96.83 30.3 84.5 24.54 L 83.16 26.93 C 85.86 36.14 86.59 38.71 83.89999999999999 43.51 L 31 137.59 z M 77.03 151.44 C 70.29 147.65 71.67 135.01999999999998 74.11 126.14 L 90.37 97.23 C 94.64 94.9 100.42 93.03 105.21000000000001 95.73 C 113.9 100.61 109.89000000000001 115.12 100.53 131.74 C 91.18 148.36 83.32 154.98 77.03 151.44 z M 77.03 151.44" stroke-linecap="round" />
</g>
		<g transform="matrix(1 0 0 1 -379.28 -17.99)"  >
<path style="stroke: none; stroke-width: 1; stroke-dasharray: none; stroke-linecap: butt; stroke-dashoffset: 0; stroke-linejoin: miter; stroke-miterlimit: 4; fill: rgb(59,97,85); fill-rule: nonzero; opacity: 1;" vector-effect="non-scaling-stroke"  transform=" translate(-220.72, -125.95)" d="M 145.78 165.5 C 152.71 161.11 154.4 159.25 154.4 146.91 L 154.4 116.32 C 154.4 100.77 152.54 98.91 145.78 93.33999999999999 L 145.78 90.63999999999999 C 158.96 89.95999999999998 171.97 87.59999999999998 185.15 83.70999999999998 L 185.15 101.27999999999997 C 192.25 89.78999999999998 202.05 84.03999999999998 212.19 84.03999999999998 C 218.10999999999999 84.03999999999998 231.79 86.56999999999998 235.51 101.60999999999999 C 242.78 89.77999999999999 252.57999999999998 84.03999999999999 262.71999999999997 84.03999999999999 C 269.82 84.03999999999999 287.04999999999995 87.58999999999999 287.04999999999995 110.22999999999999 L 287.04999999999995 146.89999999999998 C 287.04999999999995 159.23999999999998 288.73999999999995 161.09999999999997 295.66999999999996 165.48999999999998 L 295.66999999999996 168.18999999999997 L 247.84999999999997 168.18999999999997 L 247.84999999999997 165.48999999999998 C 254.09999999999997 161.1 255.61999999999998 159.23999999999998 255.95999999999998 146.89999999999998 C 256.13 136.42 256.13 126.61999999999998 256.13 117.32999999999998 C 256.13 107.18999999999998 250.38 103.29999999999998 245.65 103.29999999999998 C 242.61 103.29999999999998 239.4 105.66999999999999 236.52 109.04999999999998 L 236.52 110.22999999999999 L 236.52 146.89999999999998 C 236.52 159.23999999999998 237.87 161.09999999999997 243.62 165.48999999999998 L 243.62 168.18999999999997 L 197.15 168.18999999999997 L 197.15 165.48999999999998 C 203.4 161.1 205.09 159.23999999999998 205.43 146.89999999999998 C 205.43 136.58999999999997 205.6 126.78999999999998 205.6 117.32999999999998 C 205.6 107.18999999999998 199.85 103.29999999999998 195.12 103.29999999999998 C 192.08 103.29999999999998 188.70000000000002 105.66999999999999 185.83 109.04999999999998 L 185.83 146.89999999999998 C 185.83 159.23999999999998 187.18 161.09999999999997 192.93 165.48999999999998 L 192.93 168.18999999999997 L 145.78 168.18999999999997 L 145.78 165.5 z" stroke-linecap="round" />
</g>
		<g transform="matrix(1 0 0 1 -247.88 -16.96)"  >
<path style="stroke: none; stroke-width: 1; stroke-dasharray: none; stroke-linecap: butt; stroke-dashoffset: 0; stroke-linejoin: miter; stroke-miterlimit: 4; fill: rgb(59,97,85); fill-rule: nonzero; opacity: 1;" vector-effect="non-scaling-stroke"  transform=" translate(-352.12, -126.98)" d="M 357.19 152.48 L 356.85 152.48 C 352.79 160.25 342.82000000000005 169.72 328.46000000000004 169.72 C 314.27000000000004 169.72 305.82000000000005 161.27 305.82000000000005 149.27 C 305.82000000000005 131.86 326.94000000000005 124.77000000000001 357.02000000000004 115.81 L 357.36 101.45 C 357.36 101.45 357.7 93.17 350.6 93.17 C 337.76000000000005 93.17 333.36 117.17 333.36 117.17 L 331.16 117.85000000000001 L 312.06 106.19000000000001 C 312.06 106.19000000000001 320.85 84.05000000000001 353.97 84.05000000000001 C 385.23 84.05000000000001 387.43 103.48000000000002 387.09000000000003 116.50000000000001 L 386.25000000000006 151.99 C 386.25000000000006 154.52 387.26000000000005 157.06 389.63000000000005 157.06 C 392.33000000000004 157.06 394.70000000000005 150.64000000000001 394.70000000000005 150.64000000000001 L 398.4200000000001 152.50000000000003 C 398.4200000000001 152.50000000000003 393.5200000000001 169.91000000000003 374.5900000000001 169.91000000000003 C 355.16 169.89 357.19 152.48 357.19 152.48 z M 356.34 144.54 L 357.02 122.22999999999999 C 343.5 129.16 338.09 134.06 338.09 141.66 C 338.09 148.42 341.46999999999997 150.95 346.03 150.95 C 350.26 150.96 354.48 147.75 356.34 144.54 z" stroke-linecap="round" />
</g>
		<g transform="matrix(1 0 0 1 -160.34 -17.99)"  >
<path style="stroke: none; stroke-width: 1; stroke-dasharray: none; stroke-linecap: butt; stroke-dashoffset: 0; stroke-linejoin: miter; stroke-miterlimit: 4; fill: rgb(59,97,85); fill-rule: nonzero; opacity: 1;" vector-effect="non-scaling-stroke"  transform=" translate(-439.65, -125.95)" d="M 404.34 165.5 C 411.27 161.11 412.96 159.25 412.96 146.91 L 412.96 113.96 C 412.96 103.13999999999999 411.78 98.41 404.34 93.33999999999999 L 404.34 90.63999999999999 C 417.34999999999997 89.95999999999998 430.7 87.59999999999998 443.71 83.70999999999998 L 443.37 100.26999999999998 L 443.88 100.26999999999998 C 443.88 100.26999999999998 448.27 84.04999999999998 468.21 84.04999999999998 C 470.73999999999995 84.04999999999998 472.94 84.55999999999999 474.96999999999997 85.56999999999998 L 470.73999999999995 117.50999999999998 L 468.03999999999996 117.50999999999998 C 468.03999999999996 117.50999999999998 458.06999999999994 104.49999999999997 450.64 104.49999999999997 C 446.08 104.49999999999997 444.39 108.71999999999997 444.39 108.71999999999997 L 444.39 146.90999999999997 C 444.39 159.24999999999997 446.59 161.10999999999996 455.88 165.49999999999997 L 455.88 168.19999999999996 L 404.34 168.19999999999996 L 404.34 165.5 z" stroke-linecap="round" />
</g>
		<g transform="matrix(1 0 0 1 -66.74 -39.62)"  >
<path style="stroke: none; stroke-width: 1; stroke-dasharray: none; stroke-linecap: butt; stroke-dashoffset: 0; stroke-linejoin: miter; stroke-miterlimit: 4; fill: rgb(59,97,85); fill-rule: nonzero; opacity: 1;" vector-effect="non-scaling-stroke"  transform=" translate(-533.25, -104.32)" d="M 481.56 165.5 C 488.49 161.11 490.18 159.25 490.18 146.91 L 490.18 73.23 C 490.18 57.010000000000005 488.15000000000003 55.82000000000001 481.56 50.42 L 481.56 47.72 C 494.91 46.71 508.26 44.51 521.61 40.45 L 521.61 129 L 543.24 107.53999999999999 C 546.62 104.33 548.14 101.46 548.14 98.91999999999999 C 548.14 95.19999999999999 544.93 92.15999999999998 539.18 89.11999999999999 L 539.18 86.24999999999999 L 581.93 86.24999999999999 L 581.93 89.11999999999999 C 570.9499999999999 94.69999999999999 561.65 100.44 553.88 109.22999999999999 L 547.12 115.64999999999999 L 568.75 150.79999999999998 C 576.35 163.29999999999998 584.97 165.49999999999997 584.97 165.49999999999997 L 584.97 168.19999999999996 L 544.75 168.19999999999996 L 524.13 132.03999999999996 L 521.59 132.03999999999996 L 521.59 146.90999999999997 C 521.59 159.24999999999997 523.11 161.10999999999996 530.21 165.49999999999997 L 530.21 168.19999999999996 L 481.54 168.19999999999996 L 481.54 165.5 z" stroke-linecap="round" />
</g>
		<g transform="matrix(1 0 0 1 25.96 -17.06)"  >
<path style="stroke: none; stroke-width: 1; stroke-dasharray: none; stroke-linecap: butt; stroke-dashoffset: 0; stroke-linejoin: miter; stroke-miterlimit: 4; fill: rgb(59,97,85); fill-rule: nonzero; opacity: 1;" vector-effect="non-scaling-stroke"  transform=" translate(-625.96, -126.88)" d="M 586.5 126.29 C 586.5 98.24000000000001 605.93 83.87 628.92 83.87 C 651.4 83.87 665.42 97.39 665.42 119.36000000000001 L 665.42 123.42000000000002 L 615.4 123.42000000000002 L 615.4 124.94000000000001 C 615.4 138.46 626.38 149.61 641.09 149.61 C 649.37 149.61 657.65 145.39000000000001 662.21 138.63000000000002 L 664.4100000000001 140.15000000000003 C 659.8500000000001 157.22000000000003 647.34 169.89000000000004 628.2500000000001 169.89000000000004 C 607.8 169.89 586.5 155.36 586.5 126.29 z M 637.37 113.62 C 636.53 99.43 632.98 91.99000000000001 626.55 91.99000000000001 C 619.9599999999999 91.99000000000001 616.24 100.44000000000001 615.4 114.13000000000001 L 637.37 113.62 z" stroke-linecap="round" />
</g>
		<g transform="matrix(1 0 0 1 105.72 -28.21)"  >
<path style="stroke: none; stroke-width: 1; stroke-dasharray: none; stroke-linecap: butt; stroke-dashoffset: 0; stroke-linejoin: miter; stroke-miterlimit: 4; fill: rgb(59,97,85); fill-rule: nonzero; opacity: 1;" vector-effect="non-scaling-stroke"  transform=" translate(-705.72, -115.73)" d="M 683.16 146.06 L 683.16 95.2 L 675.56 95.2 L 675.56 88.95 C 687.05 82.7 703.4399999999999 71.88 710.7099999999999 61.57000000000001 L 714.2599999999999 61.57000000000001 L 714.2599999999999 86.24000000000001 L 733.5199999999999 86.24000000000001 L 731.4899999999999 95.20000000000002 L 714.5899999999999 95.20000000000002 L 714.0799999999999 137.78000000000003 C 713.91 149.78000000000003 718.9799999999999 152.31000000000003 724.56 152.31000000000003 C 727.43 152.31000000000003 731.15 150.96000000000004 733.8499999999999 148.59000000000003 L 735.8799999999999 151.29000000000002 C 731.6599999999999 159.06000000000003 722.3599999999999 169.88000000000002 706.8199999999999 169.88000000000002 C 693.98 169.89 683.16 162.62 683.16 146.06 z" stroke-linecap="round" />
</g>
		<g transform="matrix(1 0 0 1 190.55 -1.1)"  >
<path style="stroke: none; stroke-width: 1; stroke-dasharray: none; stroke-linecap: butt; stroke-dashoffset: 0; stroke-linejoin: miter; stroke-miterlimit: 4; fill: rgb(59,97,85); fill-rule: nonzero; opacity: 1;" vector-effect="non-scaling-stroke"  transform=" translate(-790.55, -142.84)" d="M 741.46 199.29 C 748.5600000000001 194.9 750.08 193.04 750.08 180.7 L 750.08 105.49999999999999 C 750.08 99.07999999999998 748.39 97.04999999999998 741.63 93.15999999999998 L 741.63 90.62999999999998 C 754.3 89.78999999999998 767.82 87.58999999999997 781 83.69999999999999 L 780.83 98.22999999999999 L 781.1700000000001 98.39999999999999 C 786.2400000000001 91.13 794.1800000000001 84.03999999999999 806.1800000000001 84.03999999999999 C 821.5600000000001 84.03999999999999 839.6400000000001 94.69 839.6400000000001 125.26999999999998 C 839.6400000000001 158.04999999999998 819.8700000000001 169.88 803.4800000000001 169.88 C 790.8100000000002 169.88 781.8500000000001 162.95 781.8500000000001 162.95 L 781.5100000000001 162.95 L 781.5100000000001 180.69 C 781.5100000000001 193.03 783.8800000000001 194.89 793.6800000000001 199.28 L 793.6800000000001 201.98 L 741.46 201.98 L 741.46 199.29 z M 806.86 131.36 C 806.86 114.80000000000001 803.48 98.91000000000001 793 98.91000000000001 C 788.61 98.91000000000001 784.89 102.29 781.51 106.85000000000001 L 781.51 136.42000000000002 C 781.51 136.42000000000002 785.73 159.57000000000002 796.38 159.57000000000002 C 803.99 159.58 806.86 150.12 806.86 131.36 z" stroke-linecap="round" />
</g>
		<g transform="matrix(1 0 0 1 271.75 -39.61)"  >
<path style="stroke: none; stroke-width: 1; stroke-dasharray: none; stroke-linecap: butt; stroke-dashoffset: 0; stroke-linejoin: miter; stroke-miterlimit: 4; fill: rgb(59,97,85); fill-rule: nonzero; opacity: 1;" vector-effect="non-scaling-stroke"  transform=" translate(-871.75, -104.32)" d="M 847.42 165.5 C 854.3499999999999 161.11 856.04 159.25 856.04 146.91 L 856.04 73.23 C 856.04 57.010000000000005 854.01 55.82000000000001 847.42 50.42 L 847.42 47.72 C 860.77 46.71 874.12 44.51 887.4699999999999 40.45 L 887.4699999999999 146.91 C 887.4699999999999 159.25 888.9899999999999 161.10999999999999 896.0899999999999 165.5 L 896.0899999999999 168.2 L 847.42 168.2 L 847.42 165.5 z" stroke-linecap="round" />
</g>
		<g transform="matrix(1 0 0 1 352.36 -16.96)"  >
<path style="stroke: none; stroke-width: 1; stroke-dasharray: none; stroke-linecap: butt; stroke-dashoffset: 0; stroke-linejoin: miter; stroke-miterlimit: 4; fill: rgb(59,97,85); fill-rule: nonzero; opacity: 1;" vector-effect="non-scaling-stroke"  transform=" translate(-952.36, -126.98)" d="M 957.43 152.48 L 957.0899999999999 152.48 C 953.03 160.25 943.06 169.72 928.6999999999999 169.72 C 914.5099999999999 169.72 906.06 161.27 906.06 149.27 C 906.06 131.86 927.18 124.77000000000001 957.26 115.81 L 957.6 101.45 C 957.6 101.45 957.94 93.17 950.84 93.17 C 938 93.17 933.6 117.17 933.6 117.17 L 931.4 117.85000000000001 L 912.3 106.19000000000001 C 912.3 106.19000000000001 921.0899999999999 84.05000000000001 954.2099999999999 84.05000000000001 C 985.4699999999999 84.05000000000001 987.67 103.48000000000002 987.3299999999999 116.50000000000001 L 986.4899999999999 151.99 C 986.4899999999999 154.52 987.4999999999999 157.06 989.8699999999999 157.06 C 992.5699999999999 157.06 994.9399999999999 150.64000000000001 994.9399999999999 150.64000000000001 L 998.66 152.50000000000003 C 998.66 152.50000000000003 993.76 169.91000000000003 974.8299999999999 169.91000000000003 C 955.4 169.89 957.43 152.48 957.43 152.48 z M 956.58 144.54 L 957.26 122.22999999999999 C 943.74 129.16 938.33 134.06 938.33 141.66 C 938.33 148.42 941.71 150.95 946.2700000000001 150.95 C 950.5 150.96 954.73 147.75 956.58 144.54 z" stroke-linecap="round" />
</g>
		<g transform="matrix(1 0 0 1 442.18 -16.96)"  >
<path style="stroke: none; stroke-width: 1; stroke-dasharray: none; stroke-linecap: butt; stroke-dashoffset: 0; stroke-linejoin: miter; stroke-miterlimit: 4; fill: rgb(59,97,85); fill-rule: nonzero; opacity: 1;" vector-effect="non-scaling-stroke"  transform=" translate(-1042.18, -126.98)" d="M 1004.75 126.8 C 1004.75 97.4 1024.18 84.05 1046.32 84.05 C 1069.3 84.05 1078.26 102.81 1078.26 102.81 L 1059.67 117.34 L 1057.8100000000002 116.5 C 1057.8100000000002 116.5 1053.7500000000002 92 1044.1200000000001 92 C 1038.0400000000002 92 1033.3000000000002 101.97 1033.3000000000002 115.66 C 1033.3000000000002 135.76999999999998 1041.41 149.8 1058.65 149.8 C 1070.65 149.8 1077.24 141.52 1077.24 141.52 L 1079.61 143.38000000000002 C 1079.61 143.38000000000002 1073.02 169.91000000000003 1045.81 169.91000000000003 C 1025.53 169.89 1004.75 156.03 1004.75 126.8 z" stroke-linecap="round" />
</g>
		<g transform="matrix(1 0 0 1 529.54 -17.06)"  >
<path style="stroke: none; stroke-width: 1; stroke-dasharray: none; stroke-linecap: butt; stroke-dashoffset: 0; stroke-linejoin: miter; stroke-miterlimit: 4; fill: rgb(59,97,85); fill-rule: nonzero; opacity: 1;" vector-effect="non-scaling-stroke"  transform=" translate(-1129.54, -126.88)" d="M 1090.08 126.29 C 1090.08 98.24000000000001 1109.51 83.87 1132.5 83.87 C 1154.98 83.87 1169 97.39 1169 119.36000000000001 L 1169 123.42000000000002 L 1118.98 123.42000000000002 L 1118.98 124.94000000000001 C 1118.98 138.46 1129.96 149.61 1144.67 149.61 C 1152.95 149.61 1161.23 145.39000000000001 1165.79 138.63000000000002 L 1167.99 140.15000000000003 C 1163.43 157.22000000000003 1150.92 169.89000000000004 1131.83 169.89000000000004 C 1111.37 169.89 1090.08 155.36 1090.08 126.29 z M 1140.95 113.62 C 1140.1100000000001 99.43 1136.56 91.99000000000001 1130.13 91.99000000000001 C 1123.5400000000002 91.99000000000001 1119.8200000000002 100.44000000000001 1118.98 114.13000000000001 L 1140.95 113.62 z" stroke-linecap="round" />
</g>
</g>
</g>
</svg>