<svg xmlns:dc="http://purl.org/dc/elements/1.1/" xmlns:cc="http://creativecommons.org/ns#" xmlns:rdf="http://www.w3.org/1999/02/22-rdf-syntax-ns#" xmlns:svg="http://www.w3.org/2000/svg" xmlns="http://www.w3.org/2000/svg" viewBox="0 0 689.23999 120.70667" height="120.70667" width="689.23999" xml:space="preserve" id="svg2" version="1.1" xmlns:xlink="http://www.w3.org/1999/xlink">
 <metadata id="metadata8">
  <rdf:RDF>
   <cc:Work rdf:about="">
    <dc:format>
     image/svg+xml
    </dc:format>
    <dc:type rdf:resource="http://purl.org/dc/dcmitype/StillImage">
    </dc:type>
   </cc:Work>
  </rdf:RDF>
 </metadata>
 <defs id="defs6">
 </defs>
 <g transform="matrix(1.3333333,0,0,-1.3333333,0,120.70667)" id="g10">
  <g transform="scale(0.1)" id="g12">
   <path id="path14" style="fill:#5a2530;fill-opacity:1;fill-rule:nonzero;stroke:none" d="m 544.797,905.309 c -142.715,0 -258.824,-116.11 -258.824,-258.829 V 239.672 h 95.793 l -0.028,406.808 c 0,89.903 73.153,163.051 163.059,163.051 89.898,0 163.066,-73.148 163.066,-163.051 0,-86.707 -68.047,-157.82 -153.527,-162.773 v -95.871 c 138.305,5.027 249.277,119.125 249.277,258.644 0,142.719 -116.101,258.829 -258.816,258.829">
   </path>
   <path id="path16" style="fill:#5a2530;fill-opacity:1;fill-rule:nonzero;stroke:none" d="m 421.883,258.813 c 0,-89.899 -73.164,-163.0317 -163.082,-163.0317 -89.887,0 -163.0471,73.1327 -163.0471,163.0317 0,86.718 68.0431,157.832 153.5161,162.781 v 95.883 C 110.973,512.441 0,398.344 0,258.813 0,116.113 116.102,0 258.801,0 401.52,0 517.629,116.113 517.629,258.813 v 406.441 l -95.766,0.031 0.02,-406.472">
   </path>
   <path id="path18" style="fill:#231f20;fill-opacity:1;fill-rule:nonzero;stroke:none" d="m 1290.09,432.25 h -119.04 v 202.676 h 121.79 c 77.76,0 129.37,-34.215 129.37,-100.676 0,-61.199 -52.3,-102 -132.12,-102 z m 6.88,250.723 H 1116.69 V 222.336 h 54.36 v 162.539 h 116.98 c 102.52,0 189.22,51.328 189.22,151.352 0,91.464 -71.56,146.746 -180.28,146.746">
   </path>
   <path id="path20" style="fill:#231f20;fill-opacity:1;fill-rule:nonzero;stroke:none" d="m 1801.31,262.477 c -110.1,0 -189.92,85.543 -189.92,190.836 0,105.281 78.44,189.511 188.54,189.511 110.1,0 189.92,-85.547 189.92,-190.828 0,-105.293 -78.44,-189.519 -188.54,-189.519 z m 0,428.39 c -146.57,0 -246.34,-111.211 -246.34,-238.871 0,-127.656 98.4,-237.555 244.96,-237.555 146.57,0 246.34,111.211 246.34,238.872 0,127.66 -98.39,237.554 -244.96,237.554">
   </path>
   <path id="path22" style="fill:#231f20;fill-opacity:1;fill-rule:nonzero;stroke:none" d="m 2330.48,477.656 c -105.97,21.715 -130.74,46.067 -130.74,90.16 0,42.114 39.91,75.008 102.53,75.008 49.54,0 94.27,-15.133 139,-50.011 l 31.65,40.148 c -48.85,37.508 -99.09,56.582 -169.27,56.582 -91.52,0 -158.27,-52.641 -158.27,-126.344 0,-76.332 50.92,-110.551 161.71,-133.578 101.15,-20.402 125.23,-44.746 125.23,-88.176 0,-46.718 -42.66,-78.968 -107.34,-78.968 -66.75,0 -114.91,21.714 -165.15,65.14 l -33.71,-38.16 c 57.8,-49.348 120.41,-73.703 196.79,-73.703 95.65,0 164.46,51.328 164.46,130.949 0,71.074 -49.54,108.586 -156.89,130.953">
   </path>
   <path id="path24" style="fill:#231f20;fill-opacity:1;fill-rule:nonzero;stroke:none" d="m 2930.47,478.316 h -278 v 204.657 h -54.36 V 222.336 h 54.36 v 207.285 h 278 V 222.336 h 54.36 v 460.637 h -54.36 V 478.316">
   </path>
   <path id="path26" style="fill:#231f20;fill-opacity:1;fill-rule:nonzero;stroke:none" d="m 3351.53,431.598 -175.46,251.375 h -55.05 V 222.336 h 52.99 v 372.453 l 175.46,-246.105 h 2.76 l 175.46,246.765 V 222.336 h 54.36 v 460.637 h -55.04 L 3351.53,431.598">
   </path>
   <path id="path28" style="fill:#231f20;fill-opacity:1;fill-rule:nonzero;stroke:none" d="m 3811.14,390.797 110.09,234.918 109.41,-234.918 z m 85.32,295.465 -219.5,-463.926 h 55.73 l 57.11,121.738 h 262.17 l 56.42,-121.738 h 58.5 l -219.52,463.926 h -50.91">
   </path>
   <path id="path30" style="fill:#231f20;fill-opacity:1;fill-rule:nonzero;stroke:none" d="m 4316.15,448.043 v 186.883 h 148.64 c 77.75,0 123.16,-34.215 123.16,-91.465 0,-59.875 -51.6,-95.418 -123.86,-95.418 z m 326.86,97.395 c 0,82.917 -68.13,137.535 -174.1,137.535 H 4261.79 V 222.336 h 54.36 v 178.988 h 137.62 l 139.68,-178.988 h 66.75 l -147.94,188.199 c 75.69,13.164 130.75,57.91 130.75,134.903">
   </path>
   <path id="path32" style="fill:#231f20;fill-opacity:1;fill-rule:nonzero;stroke:none" d="m 4953.98,481.609 206.43,201.364 h -70.19 L 4813.6,407.906 v 275.067 h -54.36 V 222.336 h 54.36 v 123.715 l 102.53,99.363 185.1,-223.078 h 68.12 l -215.37,259.273">
   </path>
  </g>
 </g>
</svg>